<svg height="40" viewBox="0 0 60 53" width="50" xmlns="http://www.w3.org/2000/svg"><g id="Page-1" fill="none" fill-rule="evenodd"><g id="003---Gems" fill-rule="nonzero"><path id="Shape" d="m47 18h-12l-6-11h10z" fill="#cad9fc"/><path id="Shape" d="m35 18h-22l6-11h10z" fill="#e8edfc"/><path id="Shape" d="m29 7h-3l6 11h3z" fill="#cad9fc"/><path id="Shape" d="m19 7-6 11h-12l8-11z" fill="#cad9fc"/><path id="Shape" d="m24 44-23-26h12l2.54 6 2.11 5z" fill="#a4c2f7"/><path id="Shape" d="m47 18-5.31 6-7.07 8-.52.58-4.39 4.96-5.71 6.46 11-26z" fill="#a4c2f7"/><path id="Shape" d="m35 18-11 26-6.35-15-2.11-5-2.54-6z" fill="#e8edfc"/><path id="Shape" d="m32 18-9.5 22.456 1.5 3.544 11-26z" fill="#a4c2f7"/><path id="Shape" d="m59 32h-8.87l-4.43-8h7.39z" fill="#a4c2f7"/><path id="Shape" d="m50.13 32-8.13 20-7.9-19.42.52-.58z" fill="#e8edfc"/><path id="Shape" d="m47.13 32-6.631 16.311 1.501 3.689 8.13-20z" fill="#cad9fc"/><path id="Shape" d="m50.13 32h-15.51l7.07-8h4.01z" fill="#e8edfc"/><path id="Shape" d="m45.7 24h-3l4.43 8h3z" fill="#cad9fc"/><path id="Shape" d="m59 32-17 20 8.13-20z" fill="#a4c2f7"/><path id="Shape" d="m42 52-12.29-14.46 4.39-4.96z" fill="#a4c2f7"/><path id="Shape" d="m25.5 42.3-21.5-24.3 8-11h-3l-8 11 23 26z" fill="#fff"/><path id="Rectangle-path" d="m7.958 22.995h2v8h-2z" fill="#fff" transform="matrix(.749 -.663 .663 .749 -15.638 12.712)"/><g fill="#428dff"><path id="Shape" d="m8.978 28c-.55228475.0027614-1.00223858-.4427153-1.005-.995s.44271525-1.0022386.995-1.005h.01c.55228475 0 1 .4477153 1 1s-.44771525 1-1 1z"/><path id="Shape" d="m53.894 23.406c-.1875939-.2540684-.4841832-.4045875-.8-.406h-9.182l3.837-4.337c.31099-.3512927.3359428-.8715571.06-1.251l-8-11c-.1881955-.2588844-.4889395-.41204451-.809-.412h-30c-.32006045-.00004451-.62080446.1531156-.809.412l-8 11c-.27594276.3794429-.25099003.8997073.06 1.251l5.308 6c.23686709.2679492.59869049.3891774.94917484.3180191.35048435-.0711584.63638274-.3238925.75-.663.11361727-.3391076.03769225-.7130699-.19917484-.9810191l-3.84-4.337h9.118l2.282 5.39c.1393336.3290416.4436247.558755.7982499.6026094s.7057084-.1048128.921-.39.2620837-.6635678.1227501-.9926094l-1.952-4.61h18.958l-9.481 21.548-5.422-11.961c-.1428052-.3328117-.4543916-.5624043-.8145684-.6002152-.3601767-.0378108-.7126495.1220697-.921456.4179697-.2088066.2958999-.2413112.6815712-.0849756 1.0082455l4.531 10-8.917-10.084c-.3661648-.4142136-.9987864-.4531648-1.413-.087s-.4531648.9987864-.087 1.413l12.394 14.008.013-.012c.0219825.0349875.0463748.0684017.073.1.1986144.1759105.4589939.2656822.7238184.2495526.2648245-.0161295.5123843-.136838.6881816-.3355526l4.951-5.596 11.538 13.578c.19.2235719.4685986.352423.762.352423s.572-.1288511.762-.352423l17-20c.0523657-.058854.097673-.1236267.135-.193.1700292-.3371955.1356029-.7414144-.089-1.045zm3.124 7.594h-6.3l-3.326-6h5.192zm-28.612-23 4.909 9h-18.63l4.909-9zm16.375 11-3.8 4.293-7.6 8.592-.007.007-6.754 7.637 9.033-20.529zm-2.781 29.46-6.632-15.46h13.246zm8.79-15.46h6.048l-12.179 14.328zm-5.683-8 3.326 6h-11.6l5.308-6zm-.071-8h-9.442l-4.909-9h7.806zm-35.527-9h7.806l-4.909 9h-9.442zm24.291 26.427 5.529 12.891-8.3-9.762z"/><path id="Shape" d="m39 4c.5522847 0 1-.44771525 1-1v-2c0-.55228475-.4477153-1-1-1s-1 .44771525-1 1v2c0 .55228475.4477153 1 1 1z"/><path id="Shape" d="m43 6c.1971916-.00015304.3899366-.05860276.554-.168l1.846-1.232c.3119934-.19181027.4941736-.5388286.4748821-.90455927-.0192916-.36573067-.2369682-.69165736-.5674094-.84958052-.3304411-.15792317-.7207767-.12257535-1.0174727.09213979l-1.845 1.23c-.3666557.24448513-.5300428.7001723-.4022708 1.12193492.127772.42176263.5165789.71016397.9572708.71006508z"/><path id="Shape" d="m23.845 47c-.5522847 0-1 .4477153-1 1v2c0 .5522847.4477153 1 1 1s1-.4477153 1-1v-2c0-.5522847-.4477153-1-1-1z"/><path id="Shape" d="m18 48.23c.1971916-.000153.3899366-.0586028.554-.168l1.844-1.23c.3042178-.195156.4794522-.5392835.4583434-.9001003s-.2352753-.6821632-.5601743-.8405141-.7099611-.1290596-1.0071691.0766144l-1.844 1.232c-.364768.245122-.5267481.6996672-.3992007 1.1202289s.5147249.7085591.9542007.7097711z"/></g></g></g></svg>